#!OML:ASF H:\Dans Jumps\Project 1\Capture day 1\Session 1\subject.ASF
:FULLY-SPECIFIED
:DEGREES
133
root 0.568493 17.6267 -14.1122 5.95495 -0.089235 -1.22156
lowerback -4.61143 -0.443095 -0.0831876
upperback 3.23453 -0.66624 1.44592
thorax 5.96677 -0.365711 1.48599
lowerneck -12.2496 0.468651 -2.06605
upperneck 36.039 1.02476 0.684808
head 14.4066 0.249265 0.806121
rclavicle 1.39149e-015 5.36719e-015
rhumerus -22.8477 -10.9235 -84.7133
rradius 24.2986
rwrist 32.8583
rhand -19.5138 -26.6585
rfingers 7.12502
rthumb 6.80915 -56.529
lclavicle 1.39149e-015 5.36719e-015
lhumerus -19.3962 -7.57071 91.3709
lradius 18.5396
lwrist 1.05448
lhand -25.1673 -4.04441
lfingers 7.12502
lthumb 1.34997 25.9311
rfemur -11.1303 -3.38072 19.2396
rtibia 18.6045
rfoot -12.415 -3.45292
rtoes 11.6142
lfemur -8.73291 5.72799 -17.4803
ltibia 15.0113
lfoot -9.63308 5.88039
ltoes 0.3517
134
root 0.568836 17.6265 -14.1128 5.95064 -0.0815854 -1.22703
lowerback -4.61075 -0.44196 -0.0777
upperback 3.23305 -0.66513 1.44662
thorax 5.96473 -0.364938 1.48374
lowerneck -12.2506 0.467673 -2.06385
upperneck 36.0258 1.02175 0.687476
head 14.4008 0.248817 0.806245
rclavicle -9.49197e-015 1.51076e-014
rhumerus -22.8379 -10.9231 -84.7108
rradius 24.2966
rwrist 32.8484
rhand -19.5008 -26.6648
rfingers 7.12502
rthumb 6.82173 -56.5349
lclavicle -9.49197e-015 1.51076e-014
lhumerus -19.3776 -7.56876 91.368
lradius 18.5426
lwrist 1.05546
lhand -25.1716 -4.06157
lfingers 7.12502
lthumb 1.34586 25.9139
rfemur -11.1289 -3.38259 19.2444
rtibia 18.609
rfoot -12.4178 -3.45765
rtoes 11.617
lfemur -8.7446 5.72624 -17.4756
ltibia 15.0344
lfoot -9.64112 5.87827
ltoes 0.347803
135
root 0.569179 17.6262 -14.1135 5.94676 -0.0723963 -1.23216
lowerback -4.61079 -0.440872 -0.0712871
upperback 3.23144 -0.664098 1.44627
thorax 5.96294 -0.364141 1.47988
lowerneck -12.253 0.465774 -2.06093
upperneck 36.0158 1.01733 0.689865
head 14.3967 0.24779 0.805954
rclavicle 4.22417e-015 -2.98177e-015
rhumerus -22.8283 -10.928 -84.7085
rradius 24.2959
rwrist 32.842
rhand -19.4904 -26.6711
rfingers 7.12502
rthumb 6.83175 -56.5409
lclavicle 4.22417e-015 -2.98177e-015
lhumerus -19.3585 -7.574 91.3653
lradius 18.5478
lwrist 1.06884
lhand -25.1747 -4.06972
lfingers 7.12502
lthumb 1.34287 25.9058
rfemur -11.1282 -3.38661 19.2491
rtibia 18.6131
rfoot -12.4193 -3.46181
rtoes 11.6245
lfemur -8.75726 5.72573 -17.4712
ltibia 15.0575
lfoot -9.64886 5.87299
ltoes 0.348639
136
root 0.569504 17.626 -14.1143 5.94446 -0.0643395 -1.23849
lowerback -4.60997 -0.439891 -0.0641518
upperback 3.22954 -0.663285 1.44657
thorax 5.96036 -0.363434 1.47626
lowerneck -12.2559 0.464026 -2.06231
upperneck 36.0047 1.01313 0.695629
head 14.3922 0.246728 0.807831
rclavicle 4.22417e-015 -1.23246e-014
rhumerus -22.8173 -10.9317 -84.707
rradius 24.2981
rwrist 32.8356
rhand -19.4756 -26.6885
rfingers 7.12502
rthumb 6.84603 -56.5579
lclavicle 4.22417e-015 -1.23246e-014
lhumerus -19.3408 -7.58992 91.3642
lradius 18.5608
lwrist 1.09804
lhand -25.1781 -4.0631
lfingers 7.12502
lthumb 1.33958 25.9124
rfemur -11.1303 -3.3906 19.2553
rtibia 18.6178
rfoot -12.4199 -3.46474
rtoes 11.6347
lfemur -8.7714 5.72557 -17.4655
ltibia 15.0796
lfoot -9.65528 5.86776
ltoes 0.354257
137
root 0.569889 17.6258 -14.115 5.93955 -0.0570204 -1.24179
lowerback -4.60718 -0.438822 -0.058979
upperback 3.22841 -0.662124 1.44538
thorax 5.95745 -0.362604 1.47223
lowerneck -12.2578 0.46186 -2.06426
upperneck 35.9939 1.00844 0.701409
head 14.3876 0.245376 0.809734
rclavicle 4.22417e-015 -7.7526e-015
rhumerus -22.8078 -10.9365 -84.7058
rradius 24.3031
rwrist 32.8315
rhand -19.4599 -26.7089
rfingers 7.12502
rthumb 6.86126 -56.5777
lclavicle 4.22417e-015 -7.7526e-015
lhumerus -19.3243 -7.61632 91.3641
lradius 18.5779
lwrist 1.13951
lhand -25.1789 -4.0532
lfingers 7.12502
lthumb 1.33874 25.9223
rfemur -11.13 -3.39639 19.2577
rtibia 18.6233
rfoot -12.4192 -3.46589
rtoes 11.6422
lfemur -8.78144 5.72393 -17.4632
ltibia 15.1007
lfoot -9.66022 5.86468
ltoes 0.359078
138
root 0.570307 17.6256 -14.1158 5.93357 -0.0527036 -1.24378
lowerback -4.60221 -0.43805 -0.0562924
upperback 3.22663 -0.661192 1.44483
thorax 5.95266 -0.361998 1.47027
lowerneck -12.2573 0.461275 -2.06727
upperneck 35.9825 1.00644 0.70681
head 14.3822 0.244987 0.81206
rclavicle -9.93923e-017 -1.39149e-015
rhumerus -22.8009 -10.9327 -84.705
rradius 24.3128
rwrist 32.823
rhand -19.4485 -26.7252
rfingers 7.12502
rthumb 6.87221 -56.5937
lclavicle -9.93923e-017 -1.39149e-015
lhumerus -19.3107 -7.64421 91.3654
lradius 18.5982
lwrist 1.18453
lhand -25.1729 -4.03685
lfingers 7.12502
lthumb 1.34457 25.9387
rfemur -11.1296 -3.39834 19.2582
rtibia 18.6296
rfoot -12.4177 -3.46756
rtoes 11.6464
lfemur -8.78914 5.71969 -17.4624
ltibia 15.121
lfoot -9.66331 5.86657
ltoes 0.363129
139
root 0.570737 17.6253 -14.1166 5.92509 -0.0494047 -1.24473
lowerback -4.59469 -0.4377 -0.0562065
upperback 3.22487 -0.66066 1.44509
thorax 5.94647 -0.361711 1.47057
lowerneck -12.258 0.462014 -2.06616
upperneck 35.9725 1.00724 0.706826
head 14.3777 0.245614 0.811908
rclavicle 5.66536e-015 -2.18663e-015
rhumerus -22.7948 -10.923 -84.7035
rradius 24.323
rwrist 32.8099
rhand -19.4419 -26.7367
rfingers 7.12502
rthumb 6.87861 -56.605
lclavicle 5.66536e-015 -2.18663e-015
lhumerus -19.2991 -7.67297 91.3679
lradius 18.6207
lwrist 1.22685
lhand -25.1577 -4.00981
lfingers 7.12502
lthumb 1.35931 25.9656
rfemur -11.1268 -3.40083 19.2574
rtibia 18.6366
rfoot -12.4163 -3.4688
rtoes 11.6376
lfemur -8.79346 5.71541 -17.4626
ltibia 15.1413
lfoot -9.66675 5.87008
ltoes 0.356762
140
root 0.571184 17.6249 -14.1174 5.91668 -0.0467743 -1.24537
lowerback -4.58774 -0.437213 -0.0566869
upperback 3.22221 -0.659906 1.4455
thorax 5.93967 -0.361337 1.47137
lowerneck -12.2547 0.463126 -2.06419
upperneck 35.9613 1.00831 0.706611
head 14.3717 0.246464 0.811507
rclavicle -1.2424e-015 1.78906e-015
rhumerus -22.7916 -10.9086 -84.7018
rradius 24.3352
rwrist 32.7909
rhand -19.4395 -26.7485
rfingers 7.12502
rthumb 6.88093 -56.6166
lclavicle -1.2424e-015 1.78906e-015
lhumerus -19.2892 -7.70147 91.3711
lradius 18.643
lwrist 1.26289
lhand -25.1438 -3.98893
lfingers 7.12502
lthumb 1.37271 25.9864
rfemur -11.1243 -3.40229 19.2559
rtibia 18.6437
rfoot -12.4152 -3.46927
rtoes 11.6297
lfemur -8.79834 5.71128 -17.4634
ltibia 15.1627
lfoot -9.67115 5.87416
ltoes 0.348336
141
root 0.57165 17.6245 -14.1183 5.90846 -0.0443184 -1.24774
lowerback -4.57778 -0.436878 -0.0565689
upperback 3.21783 -0.659426 1.44728
thorax 5.92936 -0.361087 1.47324
lowerneck -12.2523 0.464875 -2.06078
upperneck 35.9512 1.01051 0.70485
head 14.3664 0.247771 0.81041
rclavicle 5.71506e-015 7.95139e-015
rhumerus -22.7896 -10.8904 -84.6992
rradius 24.3469
rwrist 32.7715
rhand -19.4469 -26.7503
rfingers 7.12502
rthumb 6.87376 -56.6187
lclavicle 5.71506e-015 7.95139e-015
lhumerus -19.2821 -7.72748 91.3752
lradius 18.6669
lwrist 1.29053
lhand -25.1305 -3.97376
lfingers 7.12502
lthumb 1.38555 26.0015
rfemur -11.1222 -3.40436 19.2567
rtibia 18.6505
rfoot -12.4145 -3.46958
rtoes 11.6119
lfemur -8.80508 5.70903 -17.4626
ltibia 15.1859
lfoot -9.67622 5.87748
ltoes 0.331949
142
root 0.572106 17.6242 -14.1193 5.90046 -0.0418817 -1.25296
lowerback -4.56755 -0.436056 -0.0538092
upperback 3.21353 -0.658534 1.44998
thorax 5.91893 -0.360545 1.47463
lowerneck -12.2496 0.466517 -2.05799
upperneck 35.9388 1.01221 0.704456
head 14.36 0.248994 0.809884
rclavicle -2.5842e-015 1.33186e-014
rhumerus -22.7864 -10.8716 -84.6964
rradius 24.3581
rwrist 32.7519
rhand -19.4515 -26.7535
rfingers 7.12502
rthumb 6.86936 -56.6221
lclavicle -2.5842e-015 1.33186e-014
lhumerus -19.2735 -7.75322 91.3797
lradius 18.6913
lwrist 1.31351
lhand -25.1191 -3.95735
lfingers 7.12502
lthumb 1.39654 26.0178
rfemur -11.12 -3.40566 19.2607
rtibia 18.6564
rfoot -12.4144 -3.46912
rtoes 11.6027
lfemur -8.8136 5.70805 -17.4585
ltibia 15.2113
lfoot -9.68191 5.87913
ltoes 0.314973
143
root 0.572554 17.6238 -14.1203 5.89292 -0.0396375 -1.25934
lowerback -4.55837 -0.434651 -0.0494068
upperback 3.20992 -0.656979 1.45238
thorax 5.9098 -0.359609 1.47485
lowerneck -12.2506 0.466727 -2.05569
upperneck 35.9265 1.01143 0.705679
head 14.3545 0.249293 0.809749
rclavicle -4.96962e-017 4.57205e-015
rhumerus -22.7805 -10.8549 -84.694
rradius 24.3679
rwrist 32.7393
rhand -19.4581 -26.7536
rfingers 7.12502
rthumb 6.8629 -56.6223
lclavicle -4.96962e-017 4.57205e-015
lhumerus -19.2608 -7.7821 91.3837
lradius 18.7131
lwrist 1.33679
lhand -25.1115 -3.95324
lfingers 7.12502
lthumb 1.40384 26.0219
rfemur -11.1177 -3.40591 19.2663
rtibia 18.6615
rfoot -12.4133 -3.4699
rtoes 11.5963
lfemur -8.82409 5.70827 -17.453
ltibia 15.2387
lfoot -9.68804 5.88013
ltoes 0.295344
